<?xml version='1.0' encoding='utf-8'?>
<mlt title="Anonymous Submission" root="/home/roberto">
 <producer in="0" out="500" id="black">
  <property name="mlt_type">producer</property>
  <property name="aspect_ratio">0</property>
  <property name="length">15000</property>
  <property name="eof">pause</property>
  <property name="resource">black</property>
  <property name="mlt_service">colour</property>
 </producer>
 <playlist id="black_track">
  <entry in="0" out="2357" producer="black"/>
 </playlist>
 <producer in="0" out="494" id="9_1">
  <property name="mlt_type">producer</property>
  <property name="aspect_ratio">0.000000</property>
  <property name="length">495</property>
  <property name="eof">pause</property>
  <property name="resource">Videos/DaveLion/Resources/Trouble.mp3</property>
  <property name="meta.media.nb_streams">1</property>
  <property name="meta.media.0.stream.type">audio</property>
  <property name="meta.media.0.codec.sample_fmt">s16</property>
  <property name="meta.media.0.codec.sample_rate">44100</property>
  <property name="meta.media.0.codec.channels">2</property>
  <property name="meta.media.0.codec.name">mp3</property>
  <property name="meta.media.0.codec.long_name">MP3 (MPEG audio layer 3)</property>
  <property name="meta.media.0.codec.bit_rate">320000</property>
  <property name="seekable">1</property>
  <property name="meta.attr.title.markup">Trouble</property>
  <property name="meta.attr.author.markup">Kevin MacLeod</property>
  <property name="meta.attr.copyright.markup"/>
  <property name="meta.attr.comment.markup"/>
  <property name="meta.attr.album.markup"/>
  <property name="audio_index">0</property>
  <property name="video_index">-1</property>
  <property name="mlt_service">avformat</property>
 </producer>
 <producer in="0" out="1101" id="13_1">
  <property name="mlt_type">producer</property>
  <property name="aspect_ratio">0.000000</property>
  <property name="length">1102</property>
  <property name="eof">pause</property>
  <property name="resource">Videos/DaveLion/Resources/Hammock Fight.mp3</property>
  <property name="meta.media.nb_streams">1</property>
  <property name="meta.media.0.stream.type">audio</property>
  <property name="meta.media.0.codec.sample_fmt">s16</property>
  <property name="meta.media.0.codec.sample_rate">48000</property>
  <property name="meta.media.0.codec.channels">2</property>
  <property name="meta.media.0.codec.name">mp3</property>
  <property name="meta.media.0.codec.long_name">MP3 (MPEG audio layer 3)</property>
  <property name="meta.media.0.codec.bit_rate">320000</property>
  <property name="seekable">1</property>
  <property name="meta.attr.title.markup">Hammock Fight</property>
  <property name="meta.attr.author.markup">Kevin MacLeod</property>
  <property name="meta.attr.copyright.markup"/>
  <property name="meta.attr.comment.markup"/>
  <property name="meta.attr.album.markup"/>
  <property name="audio_index">0</property>
  <property name="video_index">-1</property>
  <property name="mlt_service">avformat</property>
 </producer>
 <playlist id="playlist0">
  <blank length="802"/>
  <entry in="0" out="230" producer="9_1"/>
  <blank length="12"/>
  <entry in="7" out="590" producer="13_1"/>
 </playlist>
 <producer in="0" out="494" id="9_2">
  <property name="mlt_type">producer</property>
  <property name="aspect_ratio">0.000000</property>
  <property name="length">495</property>
  <property name="eof">pause</property>
  <property name="resource">Videos/DaveLion/Resources/Trouble.mp3</property>
  <property name="meta.media.nb_streams">1</property>
  <property name="meta.media.0.stream.type">audio</property>
  <property name="meta.media.0.codec.sample_fmt">s16</property>
  <property name="meta.media.0.codec.sample_rate">44100</property>
  <property name="meta.media.0.codec.channels">2</property>
  <property name="meta.media.0.codec.name">mp3</property>
  <property name="meta.media.0.codec.long_name">MP3 (MPEG audio layer 3)</property>
  <property name="meta.media.0.codec.bit_rate">320000</property>
  <property name="seekable">1</property>
  <property name="meta.attr.title.markup">Trouble</property>
  <property name="meta.attr.author.markup">Kevin MacLeod</property>
  <property name="meta.attr.copyright.markup"/>
  <property name="meta.attr.comment.markup"/>
  <property name="meta.attr.album.markup"/>
  <property name="audio_index">0</property>
  <property name="video_index">-1</property>
  <property name="mlt_service">avformat</property>
 </producer>
 <producer in="0" out="151" id="7_2">
  <property name="mlt_type">producer</property>
  <property name="aspect_ratio">0.000000</property>
  <property name="length">152</property>
  <property name="eof">pause</property>
  <property name="resource">Videos/DaveLion/Resources/73553567.mp3</property>
  <property name="meta.media.nb_streams">1</property>
  <property name="meta.media.0.stream.type">audio</property>
  <property name="meta.media.0.codec.sample_fmt">s16</property>
  <property name="meta.media.0.codec.sample_rate">44100</property>
  <property name="meta.media.0.codec.channels">1</property>
  <property name="meta.media.0.codec.name">mp3</property>
  <property name="meta.media.0.codec.long_name">MP3 (MPEG audio layer 3)</property>
  <property name="meta.media.0.codec.bit_rate">80000</property>
  <property name="seekable">1</property>
  <property name="meta.attr.title.markup"/>
  <property name="meta.attr.author.markup"/>
  <property name="meta.attr.copyright.markup"/>
  <property name="meta.attr.comment.markup"/>
  <property name="meta.attr.album.markup"/>
  <property name="audio_index">0</property>
  <property name="video_index">-1</property>
  <property name="mlt_service">avformat</property>
 </producer>
 <producer in="0" out="151" id="7_3">
  <property name="mlt_type">producer</property>
  <property name="aspect_ratio">0.000000</property>
  <property name="length">152</property>
  <property name="eof">pause</property>
  <property name="resource">Videos/DaveLion/Resources/73553567.mp3</property>
  <property name="meta.media.nb_streams">1</property>
  <property name="meta.media.0.stream.type">audio</property>
  <property name="meta.media.0.codec.sample_fmt">s16</property>
  <property name="meta.media.0.codec.sample_rate">44100</property>
  <property name="meta.media.0.codec.channels">1</property>
  <property name="meta.media.0.codec.name">mp3</property>
  <property name="meta.media.0.codec.long_name">MP3 (MPEG audio layer 3)</property>
  <property name="meta.media.0.codec.bit_rate">80000</property>
  <property name="seekable">1</property>
  <property name="meta.attr.title.markup"/>
  <property name="meta.attr.author.markup"/>
  <property name="meta.attr.copyright.markup"/>
  <property name="meta.attr.comment.markup"/>
  <property name="meta.attr.album.markup"/>
  <property name="audio_index">0</property>
  <property name="video_index">-1</property>
  <property name="mlt_service">avformat</property>
 </producer>
 <producer in="0" out="352" id="4_2">
  <property name="mlt_type">producer</property>
  <property name="aspect_ratio">0.000000</property>
  <property name="length">353</property>
  <property name="eof">pause</property>
  <property name="resource">Music/lion.mp3</property>
  <property name="meta.media.nb_streams">1</property>
  <property name="meta.media.0.stream.type">audio</property>
  <property name="meta.media.0.codec.sample_fmt">s16</property>
  <property name="meta.media.0.codec.sample_rate">44100</property>
  <property name="meta.media.0.codec.channels">2</property>
  <property name="meta.media.0.codec.name">mp3</property>
  <property name="meta.media.0.codec.long_name">MP3 (MPEG audio layer 3)</property>
  <property name="meta.media.0.codec.bit_rate">128000</property>
  <property name="seekable">1</property>
  <property name="meta.attr.title.markup">Lion roar</property>
  <property name="meta.attr.author.markup">Lion Roar</property>
  <property name="meta.attr.copyright.markup"/>
  <property name="meta.attr.comment.markup"/>
  <property name="meta.attr.album.markup">101 Digital Sound Effects - so</property>
  <property name="audio_index">0</property>
  <property name="video_index">-1</property>
  <property name="mlt_service">avformat</property>
 </producer>
 <playlist id="playlist1">
  <blank length="612"/>
  <entry in="0" out="494" producer="9_2"/>
  <entry in="0" out="151" producer="7_2"/>
  <blank length="95"/>
  <entry in="0" out="46" producer="7_3"/>
  <blank length="38"/>
  <entry in="0" out="41" producer="7_3"/>
  <blank length="25"/>
  <entry in="0" out="28" producer="7_2"/>
  <blank length="25"/>
  <entry in="29" out="47" producer="7_2"/>
  <blank length="23"/>
  <entry in="29" out="78" producer="7_2"/>
  <blank length="25"/>
  <entry in="240" out="328" producer="4_2"/>
 </playlist>
 <producer in="0" out="352" id="4_3">
  <property name="mlt_type">producer</property>
  <property name="aspect_ratio">0.000000</property>
  <property name="length">353</property>
  <property name="eof">pause</property>
  <property name="resource">Music/lion.mp3</property>
  <property name="meta.media.nb_streams">1</property>
  <property name="meta.media.0.stream.type">audio</property>
  <property name="meta.media.0.codec.sample_fmt">s16</property>
  <property name="meta.media.0.codec.sample_rate">44100</property>
  <property name="meta.media.0.codec.channels">2</property>
  <property name="meta.media.0.codec.name">mp3</property>
  <property name="meta.media.0.codec.long_name">MP3 (MPEG audio layer 3)</property>
  <property name="meta.media.0.codec.bit_rate">128000</property>
  <property name="seekable">1</property>
  <property name="meta.attr.title.markup">Lion roar</property>
  <property name="meta.attr.author.markup">Lion Roar</property>
  <property name="meta.attr.copyright.markup"/>
  <property name="meta.attr.comment.markup"/>
  <property name="meta.attr.album.markup">101 Digital Sound Effects - so</property>
  <property name="audio_index">0</property>
  <property name="video_index">-1</property>
  <property name="mlt_service">avformat</property>
 </producer>
 <producer in="0" out="852" id="10_3">
  <property name="mlt_type">producer</property>
  <property name="aspect_ratio">0.000000</property>
  <property name="length">853</property>
  <property name="eof">pause</property>
  <property name="resource">Videos/DaveLion/Resources/The Chase FX.mp3</property>
  <property name="meta.media.nb_streams">1</property>
  <property name="meta.media.0.stream.type">audio</property>
  <property name="meta.media.0.codec.sample_fmt">s16</property>
  <property name="meta.media.0.codec.sample_rate">44100</property>
  <property name="meta.media.0.codec.channels">2</property>
  <property name="meta.media.0.codec.name">mp3</property>
  <property name="meta.media.0.codec.long_name">MP3 (MPEG audio layer 3)</property>
  <property name="meta.media.0.codec.bit_rate">320000</property>
  <property name="seekable">1</property>
  <property name="meta.attr.title.markup">The Chase FX</property>
  <property name="meta.attr.author.markup">Kevin MacLeod</property>
  <property name="meta.attr.copyright.markup"/>
  <property name="meta.attr.comment.markup"/>
  <property name="meta.attr.album.markup"/>
  <property name="audio_index">0</property>
  <property name="video_index">-1</property>
  <property name="mlt_service">avformat</property>
 </producer>
 <playlist id="playlist2">
  <blank length="1007"/>
  <entry in="0" out="352" producer="4_3"/>
  <blank length="379"/>
  <entry in="0" out="618" producer="10_3">
   <filter in="0" out="503" id="volume">
    <property name="track">0</property>
    <property name="window">75</property>
    <property name="max_gain">20dB</property>
    <property name="mlt_type">filter</property>
    <property name="mlt_service">volume</property>
    <property name="kdenlive_id">volume</property>
    <property name="tag">volume</property>
    <property name="kdenlive_ix">1</property>
    <property name="gain">1</property>
    <property name="end">1</property>
   </filter>
   <filter in="504" out="552" id="filter0">
    <property name="track">0</property>
    <property name="window">75</property>
    <property name="max_gain">20dB</property>
    <property name="mlt_type">filter</property>
    <property name="mlt_service">volume</property>
    <property name="kdenlive_id">volume</property>
    <property name="tag">volume</property>
    <property name="kdenlive_ix">1</property>
    <property name="gain">1</property>
    <property name="end">0.16</property>
   </filter>
   <filter in="553" out="571" id="filter1">
    <property name="track">0</property>
    <property name="window">75</property>
    <property name="max_gain">20dB</property>
    <property name="mlt_type">filter</property>
    <property name="mlt_service">volume</property>
    <property name="kdenlive_id">volume</property>
    <property name="tag">volume</property>
    <property name="kdenlive_ix">1</property>
    <property name="gain">0.16</property>
    <property name="end">0.02</property>
   </filter>
   <filter in="572" out="619" id="filter2">
    <property name="track">0</property>
    <property name="window">75</property>
    <property name="max_gain">20dB</property>
    <property name="mlt_type">filter</property>
    <property name="mlt_service">volume</property>
    <property name="kdenlive_id">volume</property>
    <property name="tag">volume</property>
    <property name="kdenlive_ix">1</property>
    <property name="gain">0.02</property>
    <property name="end">0</property>
   </filter>
  </entry>
 </playlist>
 <producer in="0" out="352" id="4_4">
  <property name="mlt_type">producer</property>
  <property name="aspect_ratio">0.000000</property>
  <property name="length">353</property>
  <property name="eof">pause</property>
  <property name="resource">Music/lion.mp3</property>
  <property name="meta.media.nb_streams">1</property>
  <property name="meta.media.0.stream.type">audio</property>
  <property name="meta.media.0.codec.sample_fmt">s16</property>
  <property name="meta.media.0.codec.sample_rate">44100</property>
  <property name="meta.media.0.codec.channels">2</property>
  <property name="meta.media.0.codec.name">mp3</property>
  <property name="meta.media.0.codec.long_name">MP3 (MPEG audio layer 3)</property>
  <property name="meta.media.0.codec.bit_rate">128000</property>
  <property name="seekable">1</property>
  <property name="meta.attr.title.markup">Lion roar</property>
  <property name="meta.attr.author.markup">Lion Roar</property>
  <property name="meta.attr.copyright.markup"/>
  <property name="meta.attr.comment.markup"/>
  <property name="meta.attr.album.markup">101 Digital Sound Effects - so</property>
  <property name="audio_index">0</property>
  <property name="video_index">-1</property>
  <property name="mlt_service">avformat</property>
 </producer>
 <producer in="0" out="125" id="20">
  <property name="mlt_type">producer</property>
  <property name="aspect_ratio">0.000000</property>
  <property name="length">15000</property>
  <property name="eof">pause</property>
  <property name="resource"/>
  <property name="mlt_service">kdenlivetitle</property>
  <property name="xmldata">&lt;kdenlivetitle width="1280" height="720" out="125">
 &lt;item z-index="0" type="QGraphicsTextItem">
  &lt;position x="296" y="239">
   &lt;transform>1,0,0,0,1,0,0,0,1&lt;/transform>
  &lt;/position>
  &lt;content font-color="255,255,255,255" font-pixel-size="90" font-italic="0" font-underline="0" font-weight="50" font="URW Chancery L">“Ah ha! I have him!”&lt;/content>
 &lt;/item>
 &lt;startviewport rect="0,0,1280,720"/>
 &lt;endviewport rect="0,0,1280,720"/>
 &lt;background color="0,0,0,255"/>
&lt;/kdenlivetitle>
</property>
  <property name="force_reload">0</property>
 </producer>
 <producer in="0" out="1014" id="1">
  <property name="mlt_type">producer</property>
  <property name="aspect_ratio">1.000000</property>
  <property name="length">1015</property>
  <property name="eof">pause</property>
  <property name="resource">Videos/DaveLion/Resources/VIDEO0019.DaveShotOriginal.3gp</property>
  <property name="meta.media.nb_streams">2</property>
  <property name="meta.media.0.stream.type">video</property>
  <property name="meta.media.0.stream.frame_rate">60.000000</property>
  <property name="meta.media.0.stream.sample_aspect_ratio">0.000000</property>
  <property name="meta.media.0.codec.frame_rate">60.000000</property>
  <property name="meta.media.0.codec.pix_fmt">yuv420p</property>
  <property name="meta.media.0.codec.sample_aspect_ratio">1.000000</property>
  <property name="meta.media.0.codec.name">mpeg4</property>
  <property name="meta.media.0.codec.long_name">MPEG-4 part 2</property>
  <property name="meta.media.0.codec.bit_rate">0</property>
  <property name="seekable">1</property>
  <property name="meta.attr.title.markup"/>
  <property name="meta.attr.author.markup"/>
  <property name="meta.attr.copyright.markup"/>
  <property name="meta.attr.comment.markup"/>
  <property name="meta.attr.album.markup"/>
  <property name="audio_index">-1</property>
  <property name="video_index">0</property>
  <property name="mlt_service">avformat</property>
  <property name="source_fps">60.000000</property>
 </producer>
 <producer in="0" out="211" id="14">
  <property name="mlt_type">producer</property>
  <property name="aspect_ratio">1.000000</property>
  <property name="length">212</property>
  <property name="eof">pause</property>
  <property name="resource">Videos/DaveLion/Resources/VIDEO0021.LionRunsAway.3gp</property>
  <property name="meta.media.nb_streams">2</property>
  <property name="meta.media.0.stream.type">video</property>
  <property name="meta.media.0.stream.frame_rate">60.000000</property>
  <property name="meta.media.0.stream.sample_aspect_ratio">0.000000</property>
  <property name="meta.media.0.codec.frame_rate">60.000000</property>
  <property name="meta.media.0.codec.pix_fmt">yuv420p</property>
  <property name="meta.media.0.codec.sample_aspect_ratio">1.000000</property>
  <property name="meta.media.0.codec.name">mpeg4</property>
  <property name="meta.media.0.codec.long_name">MPEG-4 part 2</property>
  <property name="meta.media.0.codec.bit_rate">0</property>
  <property name="seekable">1</property>
  <property name="meta.attr.title.markup"/>
  <property name="meta.attr.author.markup"/>
  <property name="meta.attr.copyright.markup"/>
  <property name="meta.attr.comment.markup"/>
  <property name="meta.attr.album.markup"/>
  <property name="audio_index">-1</property>
  <property name="video_index">0</property>
  <property name="mlt_service">avformat</property>
  <property name="source_fps">60.000000</property>
 </producer>
 <producer in="0" out="125" id="11">
  <property name="mlt_type">producer</property>
  <property name="aspect_ratio">0.000000</property>
  <property name="length">15000</property>
  <property name="eof">pause</property>
  <property name="resource"/>
  <property name="mlt_service">kdenlivetitle</property>
  <property name="xmldata">&lt;kdenlivetitle width="1280" height="720" out="125">
 &lt;item z-index="0" type="QGraphicsTextItem">
  &lt;position x="243" y="297">
   &lt;transform>1,0,0,0,1,0,0,0,1&lt;/transform>
  &lt;/position>
  &lt;content font-color="255,255,255,255" font-outline-color="0,0,0,255" font-pixel-size="90" font-italic="0" font-underline="0" font-weight="50" font="URW Chancery L" font-outline="0">The Lion is Vanquished!&lt;/content>
 &lt;/item>
 &lt;startviewport rect="0,0,1280,720"/>
 &lt;endviewport rect="0,0,1280,720"/>
 &lt;background color="0,0,0,255"/>
&lt;/kdenlivetitle>
</property>
  <property name="force_reload">0</property>
  <property name="templatetext">The Lion surrendors or is vanquished</property>
 </producer>
 <producer in="0" out="63" id="15">
  <property name="mlt_type">producer</property>
  <property name="aspect_ratio">1</property>
  <property name="length">15000</property>
  <property name="eof">pause</property>
  <property name="resource">Videos/DaveLion/Resources/IMAG0338.jpg</property>
  <property name="ttl">25</property>
  <property name="progressive">1</property>
  <property name="mlt_service">pixbuf</property>
 </producer>
 <producer in="0" out="125" id="12">
  <property name="mlt_type">producer</property>
  <property name="aspect_ratio">0.000000</property>
  <property name="length">15000</property>
  <property name="eof">pause</property>
  <property name="resource"/>
  <property name="mlt_service">kdenlivetitle</property>
  <property name="xmldata">&lt;kdenlivetitle width="1280" height="720" out="125">
 &lt;item z-index="0" type="QGraphicsTextItem">
  &lt;position x="495" y="297">
   &lt;transform>1,0,0,0,1,0,0,0,1&lt;/transform>
  &lt;/position>
  &lt;content font-color="255,255,255,255" font-pixel-size="90" font-italic="0" font-underline="0" font-weight="50" font="URW Chancery L">Job done&lt;/content>
 &lt;/item>
 &lt;startviewport rect="0,0,1280,720"/>
 &lt;endviewport rect="0,0,1280,720"/>
 &lt;background color="0,0,0,255"/>
&lt;/kdenlivetitle>
</property>
  <property name="force_reload">0</property>
  <property name="templatetext">Job Done</property>
 </producer>
 <producer in="0" out="140" id="8">
  <property name="mlt_type">producer</property>
  <property name="aspect_ratio">1</property>
  <property name="length">15000</property>
  <property name="eof">pause</property>
  <property name="resource">Videos/DaveLion/Resources/DavePint.AspectRation.640x480.jpg</property>
  <property name="ttl">25</property>
  <property name="progressive">1</property>
  <property name="mlt_service">pixbuf</property>
 </producer>
 <producer in="0" out="125" id="21">
  <property name="mlt_type">producer</property>
  <property name="aspect_ratio">0.000000</property>
  <property name="length">15000</property>
  <property name="eof">pause</property>
  <property name="resource"/>
  <property name="mlt_service">kdenlivetitle</property>
  <property name="xmldata">&lt;kdenlivetitle width="1280" height="720" out="125">
 &lt;item z-index="0" type="QGraphicsTextItem">
  &lt;position x="78" y="165.9375">
   &lt;transform>1,0,0,0,1,0,0,0,1&lt;/transform>
  &lt;/position>
  &lt;content font-color="255,255,255,255" font-outline-color="0,0,0,255" font-pixel-size="20" font-italic="0" alignment="4" font-underline="0" font-weight="50" font="Courier New" font-outline="0">Music:

"Trouble", "Hammock Fight" &amp;amp; "The Chase" 

by Kevin MacLeod - incompetech.com

Licensed under Creative Commons "Attribution 3.0" http://creativecommons.org/licenses/by/3.0/&lt;/content>
 &lt;/item>
 &lt;startviewport rect="0,0,1280,720"/>
 &lt;endviewport rect="0,0,1280,720"/>
 &lt;background color="0,0,0,255"/>
&lt;/kdenlivetitle>
</property>
  <property name="force_reload">0</property>
 </producer>
 <playlist id="playlist3">
  <blank length="527"/>
  <entry in="0" out="81" producer="4_4"/>
  <blank length="1043"/>
  <entry in="101" out="125" producer="20"/>
  <entry in="650" out="779" producer="1">
   <filter id="affine">
    <property name="track">0</property>
    <property name="background">colour:black</property>
    <property name="mlt_type">filter</property>
    <property name="mlt_service">affine</property>
    <property name="kdenlive_id">affine</property>
    <property name="tag">affine</property>
    <property name="kdenlive_ix">1</property>
    <property name="transition.fix_rotate_x">90</property>
    <property name="transition.fix_rotate_y">0</property>
    <property name="transition.fix_rotate_z">0</property>
    <property name="transition.rotate_x">0</property>
    <property name="transition.rotate_y">0</property>
    <property name="transition.rotate_z">0</property>
    <property name="transition.fix_shear_x">0</property>
    <property name="transition.fix_shear_y">0</property>
    <property name="transition.shear_x">0</property>
    <property name="transition.shear_y">0</property>
    <property name="transition.geometry">0,0:1280x720:100</property>
   </filter>
  </entry>
  <entry in="829" out="879" producer="1">
   <filter id="filter3">
    <property name="track">0</property>
    <property name="background">colour:black</property>
    <property name="mlt_type">filter</property>
    <property name="mlt_service">affine</property>
    <property name="kdenlive_id">affine</property>
    <property name="tag">affine</property>
    <property name="kdenlive_ix">1</property>
    <property name="transition.fix_rotate_x">90</property>
    <property name="transition.fix_rotate_y">0</property>
    <property name="transition.fix_rotate_z">0</property>
    <property name="transition.rotate_x">0</property>
    <property name="transition.rotate_y">0</property>
    <property name="transition.rotate_z">0</property>
    <property name="transition.fix_shear_x">0</property>
    <property name="transition.fix_shear_y">0</property>
    <property name="transition.shear_x">0</property>
    <property name="transition.shear_y">0</property>
    <property name="transition.geometry">0,0:1280x720:100</property>
   </filter>
  </entry>
  <entry in="12" out="57" producer="14">
   <filter id="filter4">
    <property name="track">0</property>
    <property name="background">colour:black</property>
    <property name="mlt_type">filter</property>
    <property name="mlt_service">affine</property>
    <property name="kdenlive_id">affine</property>
    <property name="tag">affine</property>
    <property name="kdenlive_ix">1</property>
    <property name="transition.fix_rotate_x">-90</property>
    <property name="transition.fix_rotate_y">0</property>
    <property name="transition.fix_rotate_z">0</property>
    <property name="transition.rotate_x">0</property>
    <property name="transition.rotate_y">0</property>
    <property name="transition.rotate_z">0</property>
    <property name="transition.fix_shear_x">0</property>
    <property name="transition.fix_shear_y">0</property>
    <property name="transition.shear_x">0</property>
    <property name="transition.shear_y">0</property>
    <property name="transition.geometry">0,0:1280x720:100</property>
   </filter>
  </entry>
  <entry in="906" out="955" producer="1">
   <filter id="filter5">
    <property name="track">0</property>
    <property name="background">colour:black</property>
    <property name="mlt_type">filter</property>
    <property name="mlt_service">affine</property>
    <property name="kdenlive_id">affine</property>
    <property name="tag">affine</property>
    <property name="kdenlive_ix">1</property>
    <property name="transition.fix_rotate_x">90</property>
    <property name="transition.fix_rotate_y">0</property>
    <property name="transition.fix_rotate_z">0</property>
    <property name="transition.rotate_x">0</property>
    <property name="transition.rotate_y">0</property>
    <property name="transition.rotate_z">0</property>
    <property name="transition.fix_shear_x">0</property>
    <property name="transition.fix_shear_y">0</property>
    <property name="transition.shear_x">0</property>
    <property name="transition.shear_y">0</property>
    <property name="transition.geometry">0,0:1280x720:100</property>
   </filter>
  </entry>
  <entry in="0" out="56" producer="11"/>
  <entry in="7" out="62" producer="15"/>
  <entry in="0" out="54" producer="12"/>
  <entry in="0" out="94" producer="8"/>
  <blank length="15"/>
  <entry in="0" out="95" producer="21"/>
 </playlist>
 <producer in="0" out="529" id="2">
  <property name="mlt_type">producer</property>
  <property name="aspect_ratio">1.000000</property>
  <property name="length">530</property>
  <property name="eof">pause</property>
  <property name="resource">Videos/EmAndPaulWedding/VIDEO0020.3gp</property>
  <property name="meta.media.nb_streams">2</property>
  <property name="meta.media.0.stream.type">video</property>
  <property name="meta.media.0.stream.frame_rate">60.000000</property>
  <property name="meta.media.0.stream.sample_aspect_ratio">0.000000</property>
  <property name="meta.media.0.codec.frame_rate">60.000000</property>
  <property name="meta.media.0.codec.pix_fmt">yuv420p</property>
  <property name="meta.media.0.codec.sample_aspect_ratio">1.000000</property>
  <property name="meta.media.0.codec.name">mpeg4</property>
  <property name="meta.media.0.codec.long_name">MPEG-4 part 2</property>
  <property name="meta.media.0.codec.bit_rate">0</property>
  <property name="seekable">1</property>
  <property name="meta.attr.title.markup"/>
  <property name="meta.attr.author.markup"/>
  <property name="meta.attr.copyright.markup"/>
  <property name="meta.attr.comment.markup"/>
  <property name="meta.attr.album.markup"/>
  <property name="audio_index">-1</property>
  <property name="video_index">0</property>
  <property name="mlt_service">avformat</property>
  <property name="source_fps">60.000000</property>
 </producer>
 <producer in="0" out="580" id="3">
  <property name="mlt_type">producer</property>
  <property name="aspect_ratio">1.000000</property>
  <property name="length">581</property>
  <property name="eof">pause</property>
  <property name="resource">Videos/EmAndPaulWedding/VIDEO0018.3gp</property>
  <property name="meta.media.nb_streams">2</property>
  <property name="meta.media.0.stream.type">video</property>
  <property name="meta.media.0.stream.frame_rate">60.000000</property>
  <property name="meta.media.0.stream.sample_aspect_ratio">0.000000</property>
  <property name="meta.media.0.codec.frame_rate">60.000000</property>
  <property name="meta.media.0.codec.pix_fmt">yuv420p</property>
  <property name="meta.media.0.codec.sample_aspect_ratio">1.000000</property>
  <property name="meta.media.0.codec.name">mpeg4</property>
  <property name="meta.media.0.codec.long_name">MPEG-4 part 2</property>
  <property name="meta.media.0.codec.bit_rate">0</property>
  <property name="seekable">1</property>
  <property name="meta.attr.title.markup"/>
  <property name="meta.attr.author.markup"/>
  <property name="meta.attr.copyright.markup"/>
  <property name="meta.attr.comment.markup"/>
  <property name="meta.attr.album.markup"/>
  <property name="audio_index">-1</property>
  <property name="video_index">0</property>
  <property name="mlt_service">avformat</property>
  <property name="source_fps">60.000000</property>
 </producer>
 <playlist id="playlist4">
  <blank length="527"/>
  <entry in="0" out="81" producer="2">
   <filter id="filter6">
    <property name="track">0</property>
    <property name="background">colour:black</property>
    <property name="mlt_type">filter</property>
    <property name="mlt_service">affine</property>
    <property name="kdenlive_id">affine</property>
    <property name="tag">affine</property>
    <property name="kdenlive_ix">1</property>
    <property name="transition.fix_rotate_x">-90</property>
    <property name="transition.fix_rotate_y">0</property>
    <property name="transition.fix_rotate_z">0</property>
    <property name="transition.rotate_x">0</property>
    <property name="transition.rotate_y">0</property>
    <property name="transition.rotate_z">0</property>
    <property name="transition.fix_shear_x">0</property>
    <property name="transition.fix_shear_y">0</property>
    <property name="transition.shear_x">0</property>
    <property name="transition.shear_y">0</property>
    <property name="transition.geometry">0,0:1280x720:100</property>
   </filter>
  </entry>
  <blank length="96"/>
  <entry in="493" out="542" producer="1">
   <filter id="filter7">
    <property name="track">0</property>
    <property name="background">colour:black</property>
    <property name="mlt_type">filter</property>
    <property name="mlt_service">affine</property>
    <property name="kdenlive_id">affine</property>
    <property name="tag">affine</property>
    <property name="kdenlive_ix">1</property>
    <property name="transition.fix_rotate_x">90</property>
    <property name="transition.fix_rotate_y">0</property>
    <property name="transition.fix_rotate_z">0</property>
    <property name="transition.rotate_x">0</property>
    <property name="transition.rotate_y">0</property>
    <property name="transition.rotate_z">0</property>
    <property name="transition.fix_shear_x">0</property>
    <property name="transition.fix_shear_y">0</property>
    <property name="transition.shear_x">0</property>
    <property name="transition.shear_y">0</property>
    <property name="transition.geometry">0,0:1280x720:100</property>
   </filter>
  </entry>
  <blank length="117"/>
  <entry in="0" out="143" producer="3"/>
  <blank length="134"/>
  <entry in="304" out="445" producer="3"/>
  <blank length="67"/>
  <entry in="333" out="374" producer="2">
   <filter id="filter8">
    <property name="track">0</property>
    <property name="background">colour:black</property>
    <property name="mlt_type">filter</property>
    <property name="mlt_service">affine</property>
    <property name="kdenlive_id">affine</property>
    <property name="tag">affine</property>
    <property name="kdenlive_ix">1</property>
    <property name="transition.fix_rotate_x">-90</property>
    <property name="transition.fix_rotate_y">0</property>
    <property name="transition.fix_rotate_z">0</property>
    <property name="transition.rotate_x">0</property>
    <property name="transition.rotate_y">0</property>
    <property name="transition.rotate_z">0</property>
    <property name="transition.fix_shear_x">0</property>
    <property name="transition.fix_shear_y">0</property>
    <property name="transition.shear_x">0</property>
    <property name="transition.shear_y">0</property>
    <property name="transition.geometry">0,0:1280x720:100</property>
   </filter>
  </entry>
  <blank length="38"/>
  <entry in="333" out="374" producer="2">
   <filter id="filter9">
    <property name="track">0</property>
    <property name="background">colour:black</property>
    <property name="mlt_type">filter</property>
    <property name="mlt_service">affine</property>
    <property name="kdenlive_id">affine</property>
    <property name="tag">affine</property>
    <property name="kdenlive_ix">1</property>
    <property name="transition.fix_rotate_x">-90</property>
    <property name="transition.fix_rotate_y">0</property>
    <property name="transition.fix_rotate_z">0</property>
    <property name="transition.rotate_x">0</property>
    <property name="transition.rotate_y">0</property>
    <property name="transition.rotate_z">0</property>
    <property name="transition.fix_shear_x">0</property>
    <property name="transition.fix_shear_y">0</property>
    <property name="transition.shear_x">0</property>
    <property name="transition.shear_y">0</property>
    <property name="transition.geometry">0,0:1280x720:100</property>
   </filter>
  </entry>
  <blank length="29"/>
  <entry in="333" out="372" producer="2">
   <filter id="filter10">
    <property name="track">0</property>
    <property name="background">colour:black</property>
    <property name="mlt_type">filter</property>
    <property name="mlt_service">affine</property>
    <property name="kdenlive_id">affine</property>
    <property name="tag">affine</property>
    <property name="kdenlive_ix">1</property>
    <property name="transition.fix_rotate_x">-90</property>
    <property name="transition.fix_rotate_y">0</property>
    <property name="transition.fix_rotate_z">0</property>
    <property name="transition.rotate_x">0</property>
    <property name="transition.rotate_y">0</property>
    <property name="transition.rotate_z">0</property>
    <property name="transition.fix_shear_x">0</property>
    <property name="transition.fix_shear_y">0</property>
    <property name="transition.shear_x">0</property>
    <property name="transition.shear_y">0</property>
    <property name="transition.geometry">0,0:1280x720:100</property>
   </filter>
  </entry>
  <blank length="24"/>
  <entry in="333" out="348" producer="2">
   <filter id="filter11">
    <property name="track">0</property>
    <property name="background">colour:black</property>
    <property name="mlt_type">filter</property>
    <property name="mlt_service">affine</property>
    <property name="kdenlive_id">affine</property>
    <property name="tag">affine</property>
    <property name="kdenlive_ix">1</property>
    <property name="transition.fix_rotate_x">-90</property>
    <property name="transition.fix_rotate_y">0</property>
    <property name="transition.fix_rotate_z">0</property>
    <property name="transition.rotate_x">0</property>
    <property name="transition.rotate_y">0</property>
    <property name="transition.rotate_z">0</property>
    <property name="transition.fix_shear_x">0</property>
    <property name="transition.fix_shear_y">0</property>
    <property name="transition.shear_x">0</property>
    <property name="transition.shear_y">0</property>
    <property name="transition.geometry">0,0:1280x720:100</property>
   </filter>
  </entry>
  <blank length="12"/>
  <entry in="333" out="342" producer="2">
   <filter id="filter12">
    <property name="track">0</property>
    <property name="background">colour:black</property>
    <property name="mlt_type">filter</property>
    <property name="mlt_service">affine</property>
    <property name="kdenlive_id">affine</property>
    <property name="tag">affine</property>
    <property name="kdenlive_ix">1</property>
    <property name="transition.fix_rotate_x">-90</property>
    <property name="transition.fix_rotate_y">0</property>
    <property name="transition.fix_rotate_z">0</property>
    <property name="transition.rotate_x">0</property>
    <property name="transition.rotate_y">0</property>
    <property name="transition.rotate_z">0</property>
    <property name="transition.fix_shear_x">0</property>
    <property name="transition.fix_shear_y">0</property>
    <property name="transition.shear_x">0</property>
    <property name="transition.shear_y">0</property>
    <property name="transition.geometry">0,0:1280x720:100</property>
   </filter>
  </entry>
  <blank length="10"/>
  <entry in="333" out="342" producer="2">
   <filter id="filter13">
    <property name="track">0</property>
    <property name="background">colour:black</property>
    <property name="mlt_type">filter</property>
    <property name="mlt_service">affine</property>
    <property name="kdenlive_id">affine</property>
    <property name="tag">affine</property>
    <property name="kdenlive_ix">1</property>
    <property name="transition.fix_rotate_x">-90</property>
    <property name="transition.fix_rotate_y">0</property>
    <property name="transition.fix_rotate_z">0</property>
    <property name="transition.rotate_x">0</property>
    <property name="transition.rotate_y">0</property>
    <property name="transition.rotate_z">0</property>
    <property name="transition.fix_shear_x">0</property>
    <property name="transition.fix_shear_y">0</property>
    <property name="transition.shear_x">0</property>
    <property name="transition.shear_y">0</property>
    <property name="transition.geometry">0,0:1280x720:100</property>
   </filter>
  </entry>
  <blank length="10"/>
  <entry in="333" out="342" producer="2">
   <filter id="filter14">
    <property name="track">0</property>
    <property name="background">colour:black</property>
    <property name="mlt_type">filter</property>
    <property name="mlt_service">affine</property>
    <property name="kdenlive_id">affine</property>
    <property name="tag">affine</property>
    <property name="kdenlive_ix">1</property>
    <property name="transition.fix_rotate_x">-90</property>
    <property name="transition.fix_rotate_y">0</property>
    <property name="transition.fix_rotate_z">0</property>
    <property name="transition.rotate_x">0</property>
    <property name="transition.rotate_y">0</property>
    <property name="transition.rotate_z">0</property>
    <property name="transition.fix_shear_x">0</property>
    <property name="transition.fix_shear_y">0</property>
    <property name="transition.shear_x">0</property>
    <property name="transition.shear_y">0</property>
    <property name="transition.geometry">0,0:1280x720:100</property>
   </filter>
  </entry>
  <blank length="89"/>
  <entry in="333" out="357" producer="2">
   <filter id="filter15">
    <property name="track">0</property>
    <property name="background">colour:black</property>
    <property name="mlt_type">filter</property>
    <property name="mlt_service">affine</property>
    <property name="kdenlive_id">affine</property>
    <property name="tag">affine</property>
    <property name="kdenlive_ix">1</property>
    <property name="transition.fix_rotate_x">-90</property>
    <property name="transition.fix_rotate_y">0</property>
    <property name="transition.fix_rotate_z">0</property>
    <property name="transition.rotate_x">0</property>
    <property name="transition.rotate_y">0</property>
    <property name="transition.rotate_z">0</property>
    <property name="transition.fix_shear_x">0</property>
    <property name="transition.fix_shear_y">0</property>
    <property name="transition.shear_x">0</property>
    <property name="transition.shear_y">0</property>
    <property name="transition.geometry">0,0:1280x720:100</property>
   </filter>
  </entry>
 </playlist>
 <producer in="0" out="125" id="16">
  <property name="mlt_type">producer</property>
  <property name="aspect_ratio">0.000000</property>
  <property name="length">15000</property>
  <property name="eof">pause</property>
  <property name="resource"/>
  <property name="mlt_service">kdenlivetitle</property>
  <property name="xmldata">&lt;kdenlivetitle width="1280" height="720" out="125">
 &lt;item z-index="0" type="QGraphicsTextItem">
  &lt;position x="254" y="180">
   &lt;transform>1,0,0,0,1,0,0,0,1&lt;/transform>
  &lt;/position>
  &lt;content font-color="255,255,255,255" font-pixel-size="90" font-italic="0" alignment="4" font-underline="0" font-weight="50" font="URW Chancery L">Oh no! There's a Lion
 loose
at the wedding!&lt;/content>
 &lt;/item>
 &lt;startviewport rect="0,0,1280,720"/>
 &lt;endviewport rect="0,0,1280,720"/>
 &lt;background color="0,0,0,255"/>
&lt;/kdenlivetitle>
</property>
  <property name="force_reload">0</property>
 </producer>
 <producer in="0" out="125" id="17">
  <property name="mlt_type">producer</property>
  <property name="aspect_ratio">0.000000</property>
  <property name="length">15000</property>
  <property name="eof">pause</property>
  <property name="resource"/>
  <property name="mlt_service">kdenlivetitle</property>
  <property name="xmldata">&lt;kdenlivetitle width="1280" height="720" out="125">
 &lt;item z-index="0" type="QGraphicsTextItem">
  &lt;position x="305" y="219.0625">
   &lt;transform>1,0,0,0,1,0,0,0,1&lt;/transform>
  &lt;/position>
  &lt;content font-color="255,255,255,255" font-pixel-size="90" font-italic="0" alignment="4" font-underline="0" font-weight="50" font="URW Chancery L">But wait!
A Hero approaches...&lt;/content>
 &lt;/item>
 &lt;startviewport rect="0,0,1280,720"/>
 &lt;endviewport rect="0,0,1280,720"/>
 &lt;background color="0,0,0,255"/>
&lt;/kdenlivetitle>
</property>
  <property name="force_reload">0</property>
 </producer>
 <producer in="0" out="125" id="18">
  <property name="mlt_type">producer</property>
  <property name="aspect_ratio">0.000000</property>
  <property name="length">15000</property>
  <property name="eof">pause</property>
  <property name="resource"/>
  <property name="mlt_service">kdenlivetitle</property>
  <property name="xmldata">&lt;kdenlivetitle width="1280" height="720" out="125">
 &lt;item z-index="0" type="QGraphicsTextItem">
  &lt;position x="280" y="297">
   &lt;transform>1,0,0,0,1,0,0,0,1&lt;/transform>
  &lt;/position>
  &lt;content font-color="255,255,255,255" font-outline-color="0,0,0,255" font-pixel-size="90" font-italic="0" font-underline="0" font-weight="50" font="URW Chancery L" font-outline="0">Dave the Lion Tamer!&lt;/content>
 &lt;/item>
 &lt;startviewport rect="0,0,1280,720"/>
 &lt;endviewport rect="0,0,1280,720"/>
 &lt;background color="0,0,0,255"/>
&lt;/kdenlivetitle>
</property>
  <property name="force_reload">0</property>
 </producer>
 <producer in="0" out="125" id="19">
  <property name="mlt_type">producer</property>
  <property name="aspect_ratio">0.000000</property>
  <property name="length">15000</property>
  <property name="eof">pause</property>
  <property name="resource"/>
  <property name="mlt_service">kdenlivetitle</property>
  <property name="xmldata">&lt;kdenlivetitle width="1280" height="720" out="125">
 &lt;item z-index="2" type="QGraphicsTextItem">
  &lt;position x="147" y="301">
   &lt;transform>1,0,0,0,1,0,0,0,1&lt;/transform>
  &lt;/position>
  &lt;content font-color="255,255,255,255" font-outline-color="0,0,0,255" font-pixel-size="90" font-italic="0" font-underline="0" font-weight="50" font="URW Chancery L" font-outline="0">“Behave, you uncouth animal!”&lt;/content>
 &lt;/item>
 &lt;startviewport rect="0,0,1280,720"/>
 &lt;endviewport rect="0,0,1280,720"/>
 &lt;background color="0,0,0,255"/>
&lt;/kdenlivetitle>
</property>
  <property name="force_reload">0</property>
 </producer>
 <playlist id="playlist5">
  <blank length="401"/>
  <entry in="0" out="125" producer="16"/>
  <blank length="82"/>
  <entry in="0" out="95" producer="17"/>
  <blank length="50"/>
  <entry in="8" out="124" producer="18"/>
  <blank length="135"/>
  <entry in="0" out="37" producer="2">
   <filter id="filter16">
    <property name="track">0</property>
    <property name="background">colour:black</property>
    <property name="mlt_type">filter</property>
    <property name="mlt_service">affine</property>
    <property name="kdenlive_id">affine</property>
    <property name="tag">affine</property>
    <property name="kdenlive_ix">1</property>
    <property name="transition.fix_rotate_x">-90</property>
    <property name="transition.fix_rotate_y">0</property>
    <property name="transition.fix_rotate_z">0</property>
    <property name="transition.rotate_x">0</property>
    <property name="transition.rotate_y">0</property>
    <property name="transition.rotate_z">0</property>
    <property name="transition.fix_shear_x">0</property>
    <property name="transition.fix_shear_y">0</property>
    <property name="transition.shear_x">0</property>
    <property name="transition.shear_y">0</property>
    <property name="transition.geometry">0,0:1280x720:100</property>
   </filter>
  </entry>
  <entry in="510" out="555" producer="1">
   <filter id="filter17">
    <property name="track">0</property>
    <property name="background">colour:black</property>
    <property name="mlt_type">filter</property>
    <property name="mlt_service">affine</property>
    <property name="kdenlive_id">affine</property>
    <property name="tag">affine</property>
    <property name="kdenlive_ix">1</property>
    <property name="transition.fix_rotate_x">90</property>
    <property name="transition.fix_rotate_y">0</property>
    <property name="transition.fix_rotate_z">0</property>
    <property name="transition.rotate_x">0</property>
    <property name="transition.rotate_y">0</property>
    <property name="transition.rotate_z">0</property>
    <property name="transition.fix_shear_x">0</property>
    <property name="transition.fix_shear_y">0</property>
    <property name="transition.shear_x">0</property>
    <property name="transition.shear_y">0</property>
    <property name="transition.geometry">0,0:1280x720:100</property>
   </filter>
  </entry>
  <entry in="0" out="58" producer="19"/>
  <blank length="142"/>
  <entry in="525" out="591" producer="1">
   <filter id="filter18">
    <property name="track">0</property>
    <property name="background">colour:black</property>
    <property name="mlt_type">filter</property>
    <property name="mlt_service">affine</property>
    <property name="kdenlive_id">affine</property>
    <property name="tag">affine</property>
    <property name="kdenlive_ix">1</property>
    <property name="transition.fix_rotate_x">90</property>
    <property name="transition.fix_rotate_y">0</property>
    <property name="transition.fix_rotate_z">0</property>
    <property name="transition.rotate_x">0</property>
    <property name="transition.rotate_y">0</property>
    <property name="transition.rotate_z">0</property>
    <property name="transition.fix_shear_x">0</property>
    <property name="transition.fix_shear_y">0</property>
    <property name="transition.shear_x">0</property>
    <property name="transition.shear_y">0</property>
    <property name="transition.geometry">0,0:1280x720:100</property>
   </filter>
  </entry>
  <blank length="42"/>
  <entry in="532" out="569" producer="1">
   <filter id="filter19">
    <property name="track">0</property>
    <property name="background">colour:black</property>
    <property name="mlt_type">filter</property>
    <property name="mlt_service">affine</property>
    <property name="kdenlive_id">affine</property>
    <property name="tag">affine</property>
    <property name="kdenlive_ix">1</property>
    <property name="transition.fix_rotate_x">90</property>
    <property name="transition.fix_rotate_y">0</property>
    <property name="transition.fix_rotate_z">0</property>
    <property name="transition.rotate_x">0</property>
    <property name="transition.rotate_y">0</property>
    <property name="transition.rotate_z">0</property>
    <property name="transition.fix_shear_x">0</property>
    <property name="transition.fix_shear_y">0</property>
    <property name="transition.shear_x">0</property>
    <property name="transition.shear_y">0</property>
    <property name="transition.geometry">0,0:1280x720:100</property>
   </filter>
  </entry>
  <blank length="42"/>
  <entry in="532" out="556" producer="1">
   <filter id="filter20">
    <property name="track">0</property>
    <property name="background">colour:black</property>
    <property name="mlt_type">filter</property>
    <property name="mlt_service">affine</property>
    <property name="kdenlive_id">affine</property>
    <property name="tag">affine</property>
    <property name="kdenlive_ix">1</property>
    <property name="transition.fix_rotate_x">90</property>
    <property name="transition.fix_rotate_y">0</property>
    <property name="transition.fix_rotate_z">0</property>
    <property name="transition.rotate_x">0</property>
    <property name="transition.rotate_y">0</property>
    <property name="transition.rotate_z">0</property>
    <property name="transition.fix_shear_x">0</property>
    <property name="transition.fix_shear_y">0</property>
    <property name="transition.shear_x">0</property>
    <property name="transition.shear_y">0</property>
    <property name="transition.geometry">0,0:1280x720:100</property>
   </filter>
  </entry>
  <blank length="44"/>
  <entry in="532" out="555" producer="1">
   <filter id="filter21">
    <property name="track">0</property>
    <property name="background">colour:black</property>
    <property name="mlt_type">filter</property>
    <property name="mlt_service">affine</property>
    <property name="kdenlive_id">affine</property>
    <property name="tag">affine</property>
    <property name="kdenlive_ix">1</property>
    <property name="transition.fix_rotate_x">90</property>
    <property name="transition.fix_rotate_y">0</property>
    <property name="transition.fix_rotate_z">0</property>
    <property name="transition.rotate_x">0</property>
    <property name="transition.rotate_y">0</property>
    <property name="transition.rotate_z">0</property>
    <property name="transition.fix_shear_x">0</property>
    <property name="transition.fix_shear_y">0</property>
    <property name="transition.shear_x">0</property>
    <property name="transition.shear_y">0</property>
    <property name="transition.geometry">0,0:1280x720:100</property>
   </filter>
  </entry>
  <blank length="16"/>
  <entry in="532" out="543" producer="1">
   <filter id="filter22">
    <property name="track">0</property>
    <property name="background">colour:black</property>
    <property name="mlt_type">filter</property>
    <property name="mlt_service">affine</property>
    <property name="kdenlive_id">affine</property>
    <property name="tag">affine</property>
    <property name="kdenlive_ix">1</property>
    <property name="transition.fix_rotate_x">90</property>
    <property name="transition.fix_rotate_y">0</property>
    <property name="transition.fix_rotate_z">0</property>
    <property name="transition.rotate_x">0</property>
    <property name="transition.rotate_y">0</property>
    <property name="transition.rotate_z">0</property>
    <property name="transition.fix_shear_x">0</property>
    <property name="transition.fix_shear_y">0</property>
    <property name="transition.shear_x">0</property>
    <property name="transition.shear_y">0</property>
    <property name="transition.geometry">0,0:1280x720:100</property>
   </filter>
  </entry>
  <blank length="10"/>
  <entry in="532" out="541" producer="1">
   <filter id="filter23">
    <property name="track">0</property>
    <property name="background">colour:black</property>
    <property name="mlt_type">filter</property>
    <property name="mlt_service">affine</property>
    <property name="kdenlive_id">affine</property>
    <property name="tag">affine</property>
    <property name="kdenlive_ix">1</property>
    <property name="transition.fix_rotate_x">90</property>
    <property name="transition.fix_rotate_y">0</property>
    <property name="transition.fix_rotate_z">0</property>
    <property name="transition.rotate_x">0</property>
    <property name="transition.rotate_y">0</property>
    <property name="transition.rotate_z">0</property>
    <property name="transition.fix_shear_x">0</property>
    <property name="transition.fix_shear_y">0</property>
    <property name="transition.shear_x">0</property>
    <property name="transition.shear_y">0</property>
    <property name="transition.geometry">0,0:1280x720:100</property>
   </filter>
  </entry>
  <blank length="10"/>
  <entry in="532" out="541" producer="1">
   <filter id="filter24">
    <property name="track">0</property>
    <property name="background">colour:black</property>
    <property name="mlt_type">filter</property>
    <property name="mlt_service">affine</property>
    <property name="kdenlive_id">affine</property>
    <property name="tag">affine</property>
    <property name="kdenlive_ix">1</property>
    <property name="transition.fix_rotate_x">90</property>
    <property name="transition.fix_rotate_y">0</property>
    <property name="transition.fix_rotate_z">0</property>
    <property name="transition.rotate_x">0</property>
    <property name="transition.rotate_y">0</property>
    <property name="transition.rotate_z">0</property>
    <property name="transition.fix_shear_x">0</property>
    <property name="transition.fix_shear_y">0</property>
    <property name="transition.shear_x">0</property>
    <property name="transition.shear_y">0</property>
    <property name="transition.geometry">0,0:1280x720:100</property>
   </filter>
  </entry>
 </playlist>
 <tractor title="Anonymous Submission" global_feed="1" in="0" out="2357" id="maintractor">
  <track producer="black_track"/>
  <track hide="video" producer="playlist0"/>
  <track hide="video" producer="playlist1"/>
  <track hide="video" producer="playlist2"/>
  <track producer="playlist3"/>
  <track producer="playlist4"/>
  <track producer="playlist5"/>
  <transition in="0" out="0" id="transition0">
   <property name="a_track">1</property>
   <property name="b_track">2</property>
   <property name="mlt_type">transition</property>
   <property name="mlt_service">mix</property>
   <property name="always_active">1</property>
   <property name="combine">1</property>
   <property name="internal_added">237</property>
  </transition>
  <transition in="0" out="0" id="transition1">
   <property name="a_track">1</property>
   <property name="b_track">3</property>
   <property name="mlt_type">transition</property>
   <property name="mlt_service">mix</property>
   <property name="always_active">1</property>
   <property name="combine">1</property>
   <property name="internal_added">237</property>
  </transition>
  <transition in="0" out="0" id="transition2">
   <property name="a_track">1</property>
   <property name="b_track">4</property>
   <property name="mlt_type">transition</property>
   <property name="mlt_service">mix</property>
   <property name="always_active">1</property>
   <property name="combine">1</property>
   <property name="internal_added">237</property>
  </transition>
  <transition in="0" out="0" id="transition3">
   <property name="a_track">1</property>
   <property name="b_track">5</property>
   <property name="mlt_type">transition</property>
   <property name="mlt_service">mix</property>
   <property name="always_active">1</property>
   <property name="combine">1</property>
   <property name="internal_added">237</property>
  </transition>
  <transition in="0" out="0" id="transition4">
   <property name="a_track">1</property>
   <property name="b_track">6</property>
   <property name="mlt_type">transition</property>
   <property name="mlt_service">mix</property>
   <property name="always_active">1</property>
   <property name="internal_added">237</property>
   <property name="combine">1</property>
  </transition>
 </tractor>
 <kdenlivedoc profile="hdv_720_25p" kdenliveversion="0.7.7.1" version="0.85" projectfolder="/home/roberto/kdenlive">
  <documentproperties zonein="0" zoneout="100" zoom="7" verticalzoom="1" renderdestination="" renderprofile="MPEG-2 4000k 2 pass" renderurl="/home/roberto/kdenlive/untitled.mpg" position="1425" rendercategory="MPEG-2"/>
  <profileinfo width="1280" display_aspect_den="9" frame_rate_den="1" description="HD 720p 25 fps" height="720" frame_rate_num="25" display_aspect_num="16" progressive="1" sample_aspect_num="1" sample_aspect_den="1"/>
  <tracksinfo>
   <trackinfo blind="1" mute="0" locked="0" trackname="" type="audio"/>
   <trackinfo blind="1" mute="0" locked="0" trackname="" type="audio"/>
   <trackinfo blind="1" mute="0" locked="0" trackname="" type="audio"/>
   <trackinfo blind="0" mute="0" locked="0" trackname=""/>
   <trackinfo blind="0" mute="0" locked="0" trackname=""/>
   <trackinfo blind="0" mute="0" locked="0" trackname=""/>
  </tracksinfo>
  <kdenlive_producer audio_max="0" id="1" default_video="0" description="Dave shot" fps="60.000000" name="VIDEO0019.3gp" videocodec="MPEG-4 part 2" resource="/home/roberto/Videos/DaveLion/Resources/VIDEO0019.DaveShotOriginal.3gp" default_audio="-1" duration="1015" file_hash="1d7e9c9b3bb692f3851583c20f6bf7ce" aspect_ratio="1.000000" channels="0" frequency="0" video_max="0" type="2" frame_size="640x480" file_size="7549843"/>
  <kdenlive_producer audio_max="0" id="2" default_video="0" description="Lion shot" fps="60.000000" name="VIDEO0020.3gp" videocodec="MPEG-4 part 2" resource="/home/roberto/Videos/EmAndPaulWedding/VIDEO0020.3gp" default_audio="-1" duration="530" file_hash="41e024f581d69196fdfc1caab5bfce0c" aspect_ratio="1.000000" channels="0" frequency="0" video_max="0" type="2" frame_size="640x480" file_size="3998805"/>
  <kdenlive_producer audio_max="0" id="3" default_video="0" description="Dave and Lion 2-shot" fps="60.000000" name="VIDEO0018.3gp" videocodec="MPEG-4 part 2" resource="/home/roberto/Videos/EmAndPaulWedding/VIDEO0018.3gp" default_audio="-1" duration="581" file_hash="3491e1409c6891e6b34000c1084e1fe4" aspect_ratio="1.000000" channels="0" frequency="0" video_max="0" type="2" frame_size="640x480" file_size="4368617"/>
  <kdenlive_producer audiocodec="MP3 (MPEG audio layer 3)" channels="2" duration="353" frame_size="1280x720" frequency="44100" file_size="226210" aspect_ratio="0.000000" file_hash="253028b65788e6fdfa7e444ddd17bd36" type="1" id="4" name="lion.mp3" resource="/home/roberto/Music/lion.mp3"/>
  <kdenlive_producer audio_max="0" channels="0" duration="125" default_audio="0" video_max="0" frame_size="2592x1552" frequency="0" in="0" file_size="974185" aspect_ratio="1.000000" out="124" file_hash="328b600eda119a67dc85ceae7e3092de" type="5" id="5" name="IMAG0337.jpg" default_video="0" resource="/home/roberto/Pictures/FitchWedding/IMAG0337.jpg"/>
  <kdenlive_producer audiocodec="MP3 (MPEG audio layer 3)" channels="1" duration="152" frame_size="1280x720" frequency="44100" description="                              " file_size="60648" aspect_ratio="0.000000" file_hash="d169a873fb89b8a56f272f610f9b3d52" type="1" id="7" name="73553567.mp3" resource="/home/roberto/Videos/DaveLion/Resources/73553567.mp3"/>
  <kdenlive_producer audio_max="0" channels="0" duration="125" default_audio="0" video_max="0" frame_size="1338x1003" frequency="0" in="0" file_size="312819" aspect_ratio="1.000000" out="124" file_hash="971d12cbcee9032e930e54e388c16477" type="5" id="8" name="DavePint.AspectRation.640x480.jpg" default_video="0" resource="/home/roberto/Videos/DaveLion/Resources/DavePint.AspectRation.640x480.jpg"/>
  <kdenlive_producer audiocodec="MP3 (MPEG audio layer 3)" channels="2" duration="495" frame_size="1280x720" frequency="44100" file_size="792514" aspect_ratio="0.000000" file_hash="06a4df11a8b967d4cd00a6d2416274d4" type="1" id="9" name="Trouble.mp3" resource="/home/roberto/Videos/DaveLion/Resources/Trouble.mp3"/>
  <kdenlive_producer audiocodec="MP3 (MPEG audio layer 3)" channels="2" duration="853" frame_size="1280x720" frequency="44100" file_size="1364696" aspect_ratio="0.000000" file_hash="4ce3664385f47bb7f364924a27469da3" type="1" id="10" name="The Chase FX.mp3" resource="/home/roberto/Videos/DaveLion/Resources/The Chase FX.mp3"/>
  <kdenlive_producer audio_max="0" id="11" default_video="0" description="The Lion surrendors or is vanquished" xmldata="&lt;kdenlivetitle width=&quot;1280&quot; height=&quot;720&quot; out=&quot;125&quot;>&#xa; &lt;item z-index=&quot;0&quot; type=&quot;QGraphicsTextItem&quot;>&#xa;  &lt;position x=&quot;243&quot; y=&quot;297&quot;>&#xa;   &lt;transform>1,0,0,0,1,0,0,0,1&lt;/transform>&#xa;  &lt;/position>&#xa;  &lt;content font-color=&quot;255,255,255,255&quot; font-outline-color=&quot;0,0,0,255&quot; font-pixel-size=&quot;90&quot; font-italic=&quot;0&quot; font-underline=&quot;0&quot; font-weight=&quot;50&quot; font=&quot;URW Chancery L&quot; font-outline=&quot;0&quot;>The Lion is Vanquished!&lt;/content>&#xa; &lt;/item>&#xa; &lt;startviewport rect=&quot;0,0,1280,720&quot;/>&#xa; &lt;endviewport rect=&quot;0,0,1280,720&quot;/>&#xa; &lt;background color=&quot;0,0,0,255&quot;/>&#xa;&lt;/kdenlivetitle>&#xa;" name="Surrendor" templatetext="The Lion surrendors or is vanquished" in="0" transparency="1" default_audio="0" duration="126" aspect_ratio="0.000000" channels="0" frequency="0" out="125" video_max="0" type="6" frame_size="1280x720"/>
  <kdenlive_producer audio_max="0" id="12" default_video="0" description="Job Done" xmldata="&lt;kdenlivetitle width=&quot;1280&quot; height=&quot;720&quot; out=&quot;125&quot;>&#xa; &lt;item z-index=&quot;0&quot; type=&quot;QGraphicsTextItem&quot;>&#xa;  &lt;position x=&quot;495&quot; y=&quot;297&quot;>&#xa;   &lt;transform>1,0,0,0,1,0,0,0,1&lt;/transform>&#xa;  &lt;/position>&#xa;  &lt;content font-color=&quot;255,255,255,255&quot; font-pixel-size=&quot;90&quot; font-italic=&quot;0&quot; font-underline=&quot;0&quot; font-weight=&quot;50&quot; font=&quot;URW Chancery L&quot;>Job done&lt;/content>&#xa; &lt;/item>&#xa; &lt;startviewport rect=&quot;0,0,1280,720&quot;/>&#xa; &lt;endviewport rect=&quot;0,0,1280,720&quot;/>&#xa; &lt;background color=&quot;0,0,0,255&quot;/>&#xa;&lt;/kdenlivetitle>&#xa;" name="Job Done" templatetext="Job Done" in="0" transparency="1" default_audio="0" duration="126" aspect_ratio="0.000000" channels="0" frequency="0" out="125" video_max="0" type="6" frame_size="1280x720"/>
  <kdenlive_producer audiocodec="MP3 (MPEG audio layer 3)" channels="2" duration="1102" zone_out="86" frame_size="1280x720" frequency="48000" file_size="1763410" aspect_ratio="0.000000" zone_in="0" file_hash="fdd06abde0cc2e39866807b56c22a93c" type="1" id="13" name="Hammock Fight.mp3" resource="/home/roberto/Videos/DaveLion/Resources/Hammock Fight.mp3"/>
  <kdenlive_producer audio_max="0" channels="0" duration="212" default_audio="-1" video_max="0" fps="60.000000" frame_size="640x480" frequency="0" file_size="1609377" aspect_ratio="1.000000" file_hash="fe5517ab27fd335fd2e80e86c76806ac" type="2" id="14" name="VIDEO0021.LionRunsAway.3gp" videocodec="MPEG-4 part 2" default_video="0" resource="/home/roberto/Videos/DaveLion/Resources/VIDEO0021.LionRunsAway.3gp"/>
  <kdenlive_producer audio_max="0" id="15" default_video="0" description="Good lion vanquished" name="IMAG0338.jpg" in="0" resource="/home/roberto/Videos/DaveLion/Resources/IMAG0338.jpg" default_audio="0" duration="125" file_hash="6d4017440f17b26d3a9e09d36d44bf55" aspect_ratio="1.000000" channels="0" frequency="0" out="124" video_max="0" type="5" frame_size="2592x1552" file_size="1012191"/>
  <kdenlive_producer audio_max="0" channels="0" duration="126" transparency="1" default_audio="0" video_max="0" frame_size="1280x720" frequency="0" in="0" aspect_ratio="0.000000" out="125" xmldata="&lt;kdenlivetitle width=&quot;1280&quot; height=&quot;720&quot; out=&quot;125&quot;>&#xa; &lt;item z-index=&quot;0&quot; type=&quot;QGraphicsTextItem&quot;>&#xa;  &lt;position x=&quot;254&quot; y=&quot;180&quot;>&#xa;   &lt;transform>1,0,0,0,1,0,0,0,1&lt;/transform>&#xa;  &lt;/position>&#xa;  &lt;content font-color=&quot;255,255,255,255&quot; font-pixel-size=&quot;90&quot; font-italic=&quot;0&quot; alignment=&quot;4&quot; font-underline=&quot;0&quot; font-weight=&quot;50&quot; font=&quot;URW Chancery L&quot;>Oh no! There's a Lion&#xa; loose&#xa;at the wedding!&lt;/content>&#xa; &lt;/item>&#xa; &lt;startviewport rect=&quot;0,0,1280,720&quot;/>&#xa; &lt;endviewport rect=&quot;0,0,1280,720&quot;/>&#xa; &lt;background color=&quot;0,0,0,255&quot;/>&#xa;&lt;/kdenlivetitle>&#xa;" type="6" id="16" name="Title clip" default_video="0"/>
  <kdenlive_producer audio_max="0" channels="0" duration="126" transparency="1" default_audio="0" video_max="0" frame_size="1280x720" frequency="0" in="0" aspect_ratio="0.000000" out="125" xmldata="&lt;kdenlivetitle width=&quot;1280&quot; height=&quot;720&quot; out=&quot;125&quot;>&#xa; &lt;item z-index=&quot;0&quot; type=&quot;QGraphicsTextItem&quot;>&#xa;  &lt;position x=&quot;305&quot; y=&quot;219.0625&quot;>&#xa;   &lt;transform>1,0,0,0,1,0,0,0,1&lt;/transform>&#xa;  &lt;/position>&#xa;  &lt;content font-color=&quot;255,255,255,255&quot; font-pixel-size=&quot;90&quot; font-italic=&quot;0&quot; alignment=&quot;4&quot; font-underline=&quot;0&quot; font-weight=&quot;50&quot; font=&quot;URW Chancery L&quot;>But wait!&#xa;A Hero approaches...&lt;/content>&#xa; &lt;/item>&#xa; &lt;startviewport rect=&quot;0,0,1280,720&quot;/>&#xa; &lt;endviewport rect=&quot;0,0,1280,720&quot;/>&#xa; &lt;background color=&quot;0,0,0,255&quot;/>&#xa;&lt;/kdenlivetitle>&#xa;" type="6" id="17" name="Title clip" default_video="0"/>
  <kdenlive_producer audio_max="0" channels="0" duration="126" transparency="1" default_audio="0" video_max="0" frame_size="1280x720" frequency="0" in="0" aspect_ratio="0.000000" out="125" xmldata="&lt;kdenlivetitle width=&quot;1280&quot; height=&quot;720&quot; out=&quot;125&quot;>&#xa; &lt;item z-index=&quot;0&quot; type=&quot;QGraphicsTextItem&quot;>&#xa;  &lt;position x=&quot;280&quot; y=&quot;297&quot;>&#xa;   &lt;transform>1,0,0,0,1,0,0,0,1&lt;/transform>&#xa;  &lt;/position>&#xa;  &lt;content font-color=&quot;255,255,255,255&quot; font-outline-color=&quot;0,0,0,255&quot; font-pixel-size=&quot;90&quot; font-italic=&quot;0&quot; font-underline=&quot;0&quot; font-weight=&quot;50&quot; font=&quot;URW Chancery L&quot; font-outline=&quot;0&quot;>Dave the Lion Tamer!&lt;/content>&#xa; &lt;/item>&#xa; &lt;startviewport rect=&quot;0,0,1280,720&quot;/>&#xa; &lt;endviewport rect=&quot;0,0,1280,720&quot;/>&#xa; &lt;background color=&quot;0,0,0,255&quot;/>&#xa;&lt;/kdenlivetitle>&#xa;" type="6" id="18" name="Title clip" default_video="0"/>
  <kdenlive_producer audio_max="0" channels="0" duration="126" transparency="1" default_audio="0" video_max="0" frame_size="1280x720" frequency="0" in="0" aspect_ratio="0.000000" out="125" xmldata="&lt;kdenlivetitle width=&quot;1280&quot; height=&quot;720&quot; out=&quot;125&quot;>&#xa; &lt;item z-index=&quot;2&quot; type=&quot;QGraphicsTextItem&quot;>&#xa;  &lt;position x=&quot;147&quot; y=&quot;301&quot;>&#xa;   &lt;transform>1,0,0,0,1,0,0,0,1&lt;/transform>&#xa;  &lt;/position>&#xa;  &lt;content font-color=&quot;255,255,255,255&quot; font-outline-color=&quot;0,0,0,255&quot; font-pixel-size=&quot;90&quot; font-italic=&quot;0&quot; font-underline=&quot;0&quot; font-weight=&quot;50&quot; font=&quot;URW Chancery L&quot; font-outline=&quot;0&quot;>“Behave, you uncouth animal!”&lt;/content>&#xa; &lt;/item>&#xa; &lt;startviewport rect=&quot;0,0,1280,720&quot;/>&#xa; &lt;endviewport rect=&quot;0,0,1280,720&quot;/>&#xa; &lt;background color=&quot;0,0,0,255&quot;/>&#xa;&lt;/kdenlivetitle>&#xa;" type="6" id="19" name="Title clip" default_video="0"/>
  <kdenlive_producer audio_max="0" channels="0" duration="126" transparency="1" default_audio="0" video_max="0" frame_size="1280x720" frequency="0" in="0" aspect_ratio="0.000000" out="125" xmldata="&lt;kdenlivetitle width=&quot;1280&quot; height=&quot;720&quot; out=&quot;125&quot;>&#xa; &lt;item z-index=&quot;0&quot; type=&quot;QGraphicsTextItem&quot;>&#xa;  &lt;position x=&quot;296&quot; y=&quot;239&quot;>&#xa;   &lt;transform>1,0,0,0,1,0,0,0,1&lt;/transform>&#xa;  &lt;/position>&#xa;  &lt;content font-color=&quot;255,255,255,255&quot; font-pixel-size=&quot;90&quot; font-italic=&quot;0&quot; font-underline=&quot;0&quot; font-weight=&quot;50&quot; font=&quot;URW Chancery L&quot;>“Ah ha! I have him!”&lt;/content>&#xa; &lt;/item>&#xa; &lt;startviewport rect=&quot;0,0,1280,720&quot;/>&#xa; &lt;endviewport rect=&quot;0,0,1280,720&quot;/>&#xa; &lt;background color=&quot;0,0,0,255&quot;/>&#xa;&lt;/kdenlivetitle>&#xa;" type="6" id="20" name="Title clip" default_video="0"/>
  <kdenlive_producer audio_max="0" channels="0" duration="126" transparency="1" default_audio="0" video_max="0" frame_size="1280x720" frequency="0" in="0" aspect_ratio="0.000000" out="125" xmldata="&lt;kdenlivetitle width=&quot;1280&quot; height=&quot;720&quot; out=&quot;125&quot;>&#xa; &lt;item z-index=&quot;0&quot; type=&quot;QGraphicsTextItem&quot;>&#xa;  &lt;position x=&quot;78&quot; y=&quot;165.9375&quot;>&#xa;   &lt;transform>1,0,0,0,1,0,0,0,1&lt;/transform>&#xa;  &lt;/position>&#xa;  &lt;content font-color=&quot;255,255,255,255&quot; font-outline-color=&quot;0,0,0,255&quot; font-pixel-size=&quot;20&quot; font-italic=&quot;0&quot; alignment=&quot;4&quot; font-underline=&quot;0&quot; font-weight=&quot;50&quot; font=&quot;Courier New&quot; font-outline=&quot;0&quot;>Music:&#xa;&#xa;&quot;Trouble&quot;, &quot;Hammock Fight&quot; &amp;amp; &quot;The Chase&quot; &#xa;&#xa;by Kevin MacLeod - incompetech.com&#xa;&#xa;Licensed under Creative Commons &quot;Attribution 3.0&quot; http://creativecommons.org/licenses/by/3.0/&lt;/content>&#xa; &lt;/item>&#xa; &lt;startviewport rect=&quot;0,0,1280,720&quot;/>&#xa; &lt;endviewport rect=&quot;0,0,1280,720&quot;/>&#xa; &lt;background color=&quot;0,0,0,255&quot;/>&#xa;&lt;/kdenlivetitle>&#xa;" type="6" id="21" name="Music Credit" default_video="0"/>
  <markers/>
  <groups>
   <group>
    <clipitem track="2" position="1954"/>
    <clipitem track="2" position="1858"/>
    <clipitem track="2" position="1807"/>
    <clipitem track="3" position="1739"/>
    <clipitem track="2" position="2011"/>
    <clipitem track="4" position="1677"/>
    <clipitem track="2" position="2122"/>
    <clipitem track="2" position="1677"/>
    <clipitem track="2" position="1904"/>
    <clipitem track="1" position="1741"/>
    <clipitem track="2" position="1652"/>
    <clipitem track="2" position="2067"/>
   </group>
  </groups>
 </kdenlivedoc>
</mlt>
